# xmcd
#
# Track frame offsets:
#	150
#	15180
#	30307
#	43308
#	58683
#	71700
#	87646
#	103282
#	115867
#	130663
#
# Disc length: 1929 seconds
#
# Revision: 0
# Processed by: cddbd v1.5.2PL0 Copyright (c) Steve Scherf et al.
# Submitted via: EasyCDDAExtractor 16.0.6.1
#
DISCID=8407870a
DTITLE=Συλλογικός δίσκος - Λαϊκό τραγούδι 1954-1967, 1967-5
DYEAR=2008
DGENRE=Λαϊκή
TTITLE0=Κόκοτας Σταμάτης - Μη μού χτυπάς τα μεσάνυχτα την πόρτα [Δήμος Μούτσης
TTITLE0=Νίκος Γκάτσος]
TTITLE1=Μοσχολιού Βίκυ-Καλδάρας Απόστολος - Εγώ θα ζω με τ' όνειρο [Απόστολος 
TTITLE1=Καλδάρας-Ευτυχία Παπαγιαννοπούλου]
TTITLE2=Μπιθικώτσης Γρηγόρης - Φέρτε μου την θάλασσα [Μίκης Θεοδωράκης-Νίκος Γ
TTITLE2=κάτσος]
TTITLE3=Μοσχολιού Βίκυ - Των αστεριών τον δρόμο πήρες [Απόστολος Καλδάρας-Ευτ.
TTITLE3=Παπαγιαννοπούλου]
TTITLE4=Κόκοτας Σταμάτης-Καλδάρας Απόστολος - Όταν θυμάμαι εκείνη [Απόστολος Κ
TTITLE4=αλδάρας-Χρ. Αργυρόπουλος]
TTITLE5=Μοσχολιού Βίκυ - Άδειο το λιμάνι [Ευάγγελος Πιτσιλαδής-Ιωάννης Κιούρκα
TTITLE5=ς]
TTITLE6=Διονυσίου Στράτος-Γεωργούτη Βούλα - Μην κατέβεις στο λιμάνι [Άκης Πάνο
TTITLE6=υ]
TTITLE7=Ευσταθίου Δημήτρης-Διαμάντη Λίτσα-Παπαδάκης Μάνος - Η γκρίζα γάτα [Βασ
TTITLE7=ίλης Βασιλειάδης-Πυθαγόρας]
TTITLE8=Τσετίνης Μπάμπης-Διαμάντη Λίτσα - Ίσως [Θεόδωρος Δερβενιώτης-Κώστας Βί
TTITLE8=ρβος]
TTITLE9=Μενιδιάτης Μιχάλης-Λιαροπούλου Άννυ - Πετραδάκι-πετραδάκι [Απόστολος Κ
TTITLE9=αλδάρας-Ευτυχία Παπαγιαννοπούλου]
EXTD=
EXTT0=
EXTT1=
EXTT2=
EXTT3=
EXTT4=
EXTT5=
EXTT6=
EXTT7=
EXTT8=
EXTT9=
PLAYORDER=
